<?xml version="1.0" standalone="no"?><!DOCTYPE svg PUBLIC "-//W3C//DTD SVG 1.1//EN" "http://www.w3.org/Graphics/SVG/1.1/DTD/svg11.dtd"><svg t="1675924469026" class="icon" viewBox="0 0 1024 1024" version="1.1" xmlns="http://www.w3.org/2000/svg" p-id="1755" xmlns:xlink="http://www.w3.org/1999/xlink" width="64" height="64"><path d="M493.9776 99.86048H517.12c135.04512 0 246.04672 117.43232 258.8672 267.71456l0.36864 4.25984 1.47456 0.16384c99.86048 12.98432 177.68448 108.87168 179.36384 225.8944v3.85024c0 127.67232-90.64448 231.17824-202.5472 231.17824H266.6496c-111.86176 0-202.58816-103.50592-202.58816-231.17824 0-116.20352 75.12064-212.3776 172.93312-228.7616l2.00704-0.32768v-0.28672c10.77248-150.97856 120.4224-270.00832 254.976-272.50688z" fill="#FFFFFF" p-id="1756"></path><path d="M510.89408 388.75136l-127.63136 127.63136 127.63136 127.67232 97.97632-97.97632 0.28672 0.24576 70.36928-70.36928 40.46848 40.42752-40.71424 40.7552-127.67232 127.63136-40.71424 40.71424-40.71424-40.71424-127.63136-127.63136-40.7552-40.7552 40.7552-40.71424 127.63136-127.63136 40.71424-40.71424 40.71424 40.71424 41.5744 41.5744 44.56448 44.48256-126.81216 126.81216-44.56448-44.52352 86.09792-86.05696-41.5744-41.5744z" fill="#84B300" p-id="1757"></path><path d="M293.43744 422.2976l-47.104 7.53664c-65.1264 11.01824-124.64128 78.68416-124.64128 171.90912 0 103.2192 71.80288 173.58848 144.95744 173.58848h487.99744c73.1136 0 144.87552-70.2464 144.9984-173.42464l-0.04096-3.35872c-1.4336-93.7984-62.83264-160.64512-128.94208-169.3696l-48.08704-5.7344-3.97312-51.2c-10.93632-127.09888-102.72768-214.8352-201.48224-214.8352h-18.59584l-3.72736 0.04096c-98.38592 1.96608-189.15328 91.17696-198.32832 218.89024l-3.03104 45.99808z m200.54016-322.43712H517.12c135.04512 0 246.04672 117.43232 258.8672 267.71456l0.36864 4.25984 1.47456 0.16384c99.86048 12.98432 177.68448 108.87168 179.36384 225.8944v3.85024c0 127.67232-90.64448 231.17824-202.5472 231.17824H266.6496c-111.86176 0-202.58816-103.50592-202.58816-231.17824 0-116.20352 75.12064-212.3776 172.93312-228.7616l2.00704-0.32768v-0.28672c10.77248-150.97856 120.4224-270.00832 254.976-272.50688z" fill="#84B300" p-id="1758"></path></svg>